<svg width="685.28" height="163.387" viewBox="0 0 513.96 122.54" class="displayed_equation" xmlns="http://www.w3.org/2000/svg" xmlns:xlink="http://www.w3.org/1999/xlink">
  <defs>
    <clipPath id="svg258159043062tikz_00015b">
      <path d="M 1 0.0117188 L 43.605469 0.0117188 L 43.605469 56.546875 L 1 56.546875 Z M 1 0.0117188" />
    </clipPath>
    <clipPath id="svg258159043062tikz_00015c">
      <path d="M 0.953125 0.0117188 L 43.605469 0.0117188 L 43.605469 56.546875 L 0.953125 56.546875 Z M 0.953125 0.0117188" />
    </clipPath>
    <clipPath id="svg258159043062tikz_00015a">
      <path d="M0 0H44V57H0z" />
    </clipPath>
    <g id="svg258159043062tikz_00015q" clip-path="url(#svg258159043062tikz_00015a)">
      <g clip-path="url(#svg258159043062tikz_00015b)">
        <path d="M 43.152344 52.417969 C 29.820313 60.113281 12.777344 55.546875 5.078125 42.21875 C -2.617188 28.886719 1.949219 11.839844 15.28125 4.144531 C 23.902344 -0.832031 34.53125 -0.832031 43.152344 4.144531" fill="#f08179" />
      </g>
      <g clip-path="url(#svg258159043062tikz_00015c)">
        <path d="M 691.523438 291.220313 C 558.203125 214.267188 387.773438 259.93125 310.78125 393.2125 C 233.828125 526.532813 279.492188 697.001563 412.8125 773.954688 C 499.023438 823.720313 605.3125 823.720313 691.523438 773.954688" transform="matrix(.1 0 0 -.1 -26 81.54)" fill="none" stroke-width="7.97" stroke-linecap="round" stroke-linejoin="round" stroke="#000" stroke-miterlimit="10" />
      </g>
    </g>
    <clipPath id="svg258159043062tikz_00015e">
      <path d="M 0.417969 0.0117188 L 43 0.0117188 L 43 56.546875 L 0.417969 56.546875 Z M 0.417969 0.0117188" />
    </clipPath>
    <clipPath id="svg258159043062tikz_00015f">
      <path d="M 0.417969 0.0117188 L 43.074219 0.0117188 L 43.074219 56.546875 L 0.417969 56.546875 Z M 0.417969 0.0117188" />
    </clipPath>
    <clipPath id="svg258159043062tikz_00015d">
      <path d="M0 0H44V57H0z" />
    </clipPath>
    <g id="svg258159043062tikz_00015r" clip-path="url(#svg258159043062tikz_00015d)">
      <g clip-path="url(#svg258159043062tikz_00015e)">
        <path d="M 0.871094 52.417969 C 14.203125 60.113281 31.25 55.546875 38.945313 42.21875 C 46.640625 28.886719 42.074219 11.839844 28.742188 4.144531 C 20.121094 -0.832031 9.496094 -0.832031 0.871094 4.144531" fill="#f08179" />
      </g>
      <g clip-path="url(#svg258159043062tikz_00015f)">
        <path d="M 688.710938 291.220313 C 822.03125 214.267188 992.5 259.93125 1069.453125 393.2125 C 1146.40625 526.532813 1100.742188 697.001563 967.421875 773.954688 C 881.210938 823.720313 774.960938 823.720313 688.710938 773.954688" transform="matrix(.1 0 0 -.1 -68 81.54)" fill="none" stroke-width="7.97" stroke-linecap="round" stroke-linejoin="round" stroke="#000" stroke-miterlimit="10" />
      </g>
    </g>
    <clipPath id="svg258159043062tikz_00015h">
      <path d="M 1 0.0664063 L 57 0.0664063 L 57 56.605469 L 1 56.605469 Z M 1 0.0664063" />
    </clipPath>
    <clipPath id="svg258159043062tikz_00015i">
      <path d="M 0.785156 0.0664063 L 57.324219 0.0664063 L 57.324219 56.605469 L 0.785156 56.605469 Z M 0.785156 0.0664063" />
    </clipPath>
    <clipPath id="svg258159043062tikz_00015g">
      <path d="M0 0H58V57H0z" />
    </clipPath>
    <g id="svg258159043062tikz_00015s" clip-path="url(#svg258159043062tikz_00015g)">
      <g clip-path="url(#svg258159043062tikz_00015h)">
        <path d="M 56.925781 28.335938 C 56.925781 12.941406 44.445313 0.464844 29.054688 0.464844 C 13.660156 0.464844 1.183594 12.941406 1.183594 28.335938 C 1.183594 43.726563 13.660156 56.207031 29.054688 56.207031 C 44.445313 56.207031 56.925781 43.726563 56.925781 28.335938 Z M 56.925781 28.335938" fill="#fccd72" />
      </g>
      <g clip-path="url(#svg258159043062tikz_00015i)">
        <path d="M 2089.257813 542.040625 C 2089.257813 695.985938 1964.453125 820.751563 1810.546875 820.751563 C 1656.601563 820.751563 1531.835938 695.985938 1531.835938 542.040625 C 1531.835938 388.134375 1656.601563 263.329688 1810.546875 263.329688 C 1964.453125 263.329688 2089.257813 388.134375 2089.257813 542.040625 Z M 2089.257813 542.040625" transform="matrix(.1 0 0 -.1 -152 82.54)" fill="none" stroke-width="7.97" stroke-linecap="round" stroke-linejoin="round" stroke="#000" stroke-miterlimit="10" />
      </g>
    </g>
    <clipPath id="svg258159043062tikz_00015k">
      <path d="M 0.0742188 0.0664063 L 56.613281 0.0664063 L 56.613281 56.605469 L 0.0742188 56.605469 Z M 0.0742188 0.0664063" />
    </clipPath>
    <clipPath id="svg258159043062tikz_00015j">
      <path d="M0 0H57V57H0z" />
    </clipPath>
    <g clip-path="url(#svg258159043062tikz_00015j)">
      <g clip-path="url(#svg258159043062tikz_00015k)" id="svg258159043062tikz_00015t">
        <path d="M 3622.148438 542.040625 C 3622.148438 695.985938 3497.382813 820.751563 3343.4375 820.751563 C 3189.53125 820.751563 3064.726563 695.985938 3064.726563 542.040625 C 3064.726563 388.134375 3189.53125 263.329688 3343.4375 263.329688 C 3497.382813 263.329688 3622.148438 388.134375 3622.148438 542.040625 Z M 3622.148438 542.040625" transform="matrix(.1 0 0 -.1 -306 82.54)" fill="#87c889" stroke-width="7.97" stroke-linecap="round" stroke-linejoin="round" stroke="#000" stroke-miterlimit="10" />
      </g>
    </g>
    <clipPath id="svg258159043062tikz_00015m">
      <path d="M 1 0.183594 L 15.5625 0.183594 L 15.5625 48.757813 L 1 48.757813 Z M 1 0.183594" />
    </clipPath>
    <clipPath id="svg258159043062tikz_00015n">
      <path d="M 0.972656 0.183594 L 15.5625 0.183594 L 15.5625 48.757813 L 0.972656 48.757813 Z M 0.972656 0.183594" />
    </clipPath>
    <clipPath id="svg258159043062tikz_00015l">
      <path d="M0 0H16V49H0z" />
    </clipPath>
    <g id="svg258159043062tikz_00015u" clip-path="url(#svg258159043062tikz_00015l)">
      <g clip-path="url(#svg258159043062tikz_00015m)">
        <path d="M 15.105469 48.304688 C 4.257813 43.511719 -1.335938 28.957031 2.613281 15.796875 C 4.726563 8.75 9.300781 3.199219 15.105469 0.636719" fill="#81bbe6" />
      </g>
      <g clip-path="url(#svg258159043062tikz_00015n)">
        <path d="M 4461.054688 302.353125 C 4352.578125 350.282813 4296.640625 495.829688 4336.132813 627.43125 C 4357.265625 697.9 4403.007813 753.407813 4461.054688 779.032813" transform="matrix(.1 0 0 -.1 -431 78.54)" fill="none" stroke-width="7.97" stroke-linecap="round" stroke-linejoin="round" stroke="#000" stroke-miterlimit="10" />
      </g>
    </g>
    <clipPath id="svg258159043062tikz_00015p">
      <path d="M 0.375 0.183594 L 14.964844 0.183594 L 14.964844 48.757813 L 0.375 48.757813 Z M 0.375 0.183594" />
    </clipPath>
    <clipPath id="svg258159043062tikz_00015o">
      <path d="M0 0H15V49H0z" />
    </clipPath>
    <g clip-path="url(#svg258159043062tikz_00015o)">
      <g clip-path="url(#svg258159043062tikz_00015p)" id="svg258159043062tikz_00015v">
        <path d="M 4458.28125 302.353125 C 4566.757813 350.282813 4622.695313 495.829688 4583.203125 627.43125 C 4562.109375 697.9 4516.328125 753.407813 4458.28125 779.032813" transform="matrix(.1 0 0 -.1 -445 78.54)" fill="#81bbe6" stroke-width="7.97" stroke-linecap="round" stroke-linejoin="round" stroke="#000" stroke-miterlimit="10" />
      </g>
    </g>
  </defs>
  <path d="M 138.28125 123.99375 L 1253.125 123.99375 L 1253.125 960.126563 L 138.28125 960.126563 Z M 138.28125 123.99375" transform="matrix(.1 0 0 -.1 0 122.54)" fill="none" stroke-width="7.97" stroke-linecap="round" stroke-linejoin="round" stroke="#000" stroke-miterlimit="10" />
  <use xlink:href="#svg258159043062tikz_00015q" transform="translate(26 41)" />
  <use xlink:href="#svg258159043062tikz_00015r" transform="translate(68 41)" />
  <path d="M21.210938 17.964844L21.589844 15.800781 21.324219 15.800781C21.210938 16.035156 21.078125 16.121094 20.886719 16.121094 20.640625 16.121094 20.386719 15.800781 19.414063 15.800781 18.164063 15.800781 16.984375 16.5 16.984375 17.796875 16.984375 18.824219 17.597656 19.222656 18.332031 19.691406 19.125 20.195313 19.882813 20.652344 19.871094 21.632813 19.859375 22.492188 19.15625 22.90625 18.234375 22.90625 17.105469 22.917969 16.726563 22.535156 16.625 20.996094L16.3125 20.996094 15.84375 23.40625 16.179688 23.40625C16.226563 23.183594 16.390625 23.039063 16.546875 23.039063 16.804688 23.039063 17.140625 23.375 18.300781 23.375 19.683594 23.375 20.867188 22.527344 20.867188 21.109375 20.867188 20.039063 20.105469 19.59375 19.28125 19.066406 18.566406 18.609375 17.910156 18.152344 17.910156 17.472656 17.910156 16.671875 18.476563 16.199219 19.402344 16.199219 20.53125 16.199219 20.84375 16.734375 20.886719 17.964844L21.210938 17.964844M36.320313 46.238281L36.386719 45.90625C35.71875 45.90625 35.527344 45.660156 35.417969 44.910156L34.535156 38.863281 34.066406 38.863281 30.207031 44.457031C29.371094 45.726563 29.15625 45.90625 28.542969 45.90625L28.464844 46.238281 30.796875 46.238281 30.875 45.90625C30.382813 45.90625 30.226563 45.839844 30.226563 45.605469 30.226563 45.390625 30.363281 45.203125 30.507813 44.980469L31.289063 43.796875 34.167969 43.796875 34.277344 44.800781C34.289063 44.933594 34.300781 45.089844 34.300781 45.269531 34.300781 45.828125 33.953125 45.90625 33.40625 45.90625L33.34375 46.238281zM34.121094 43.351563L31.554688 43.351563 33.71875 40.125 33.753906 40.125 34.121094 43.351563M107.609375 42.347656C108.667969 42.101563 109.558594 41.554688 109.558594 40.347656 109.558594 39.546875 109.023438 38.910156 107.140625 38.910156L104.316406 38.910156 104.25 39.246094C105.074219 39.246094 105.289063 39.367188 105.097656 40.261719L104.148438 44.84375C103.960938 45.769531 103.769531 45.90625 102.921875 45.90625L102.855469 46.238281 106.070313 46.238281C107.820313 46.238281 109.203125 45.425781 109.203125 43.929688 109.203125 42.992188 108.476563 42.523438 107.609375 42.402344zM105.6875 42.199219L106.269531 39.367188C106.503906 39.34375 106.601563 39.332031 106.828125 39.332031 108.078125 39.332031 108.453125 39.824219 108.453125 40.425781 108.453125 41.53125 107.875 42.199219 106.335938 42.199219zM105.601563 42.648438L106.257813 42.648438C107.195313 42.648438 108.054688 42.9375 108.054688 43.964844 108.054688 45.613281 106.660156 45.839844 105.644531 45.839844 105.367188 45.839844 105.21875 45.828125 104.964844 45.804688L105.601563 42.648438" />
  <path d="M49.015625 30.210938L48.949219 30.542969C49.695313 30.542969 49.929688 30.667969 49.808594 31.324219L48.816406 36.121094C48.636719 37.058594 48.46875 37.207031 47.621094 37.207031L47.554688 37.539063 50.65625 37.539063 50.722656 37.207031C49.820313 37.207031 49.617188 37.082031 49.808594 36.167969L50.199219 34.261719C50.34375 34.304688 50.644531 34.347656 50.867188 34.347656 52.339844 34.347656 54.136719 33.679688 54.136719 31.75 54.136719 30.578125 53.101563 30.210938 51.726563 30.210938zM50.921875 30.691406C51.171875 30.667969 51.292969 30.644531 51.527344 30.644531 52.652344 30.644531 53.054688 31.148438 53.054688 31.882813 53.054688 33.3125 52.105469 33.890625 50.824219 33.890625 50.566406 33.890625 50.410156 33.871094 50.289063 33.847656L50.921875 30.691406M56.679688 34.582031C56.679688 37.035156 57.851563 38.789063 59.648438 39.714844L59.828125 39.402344C58.195313 38.332031 57.59375 36.824219 57.59375 34.582031 57.59375 32.363281 58.195313 30.867188 59.828125 29.785156L59.648438 29.496094C57.851563 30.410156 56.679688 32.152344 56.679688 34.582031M67.921875 37.539063L67.988281 37.207031C67.316406 37.207031 67.128906 36.960938 67.015625 36.210938L66.136719 30.164063 65.667969 30.164063 61.804688 35.753906C60.96875 37.027344 60.757813 37.207031 60.144531 37.207031L60.066406 37.539063 62.398438 37.539063 62.476563 37.207031C61.984375 37.207031 61.828125 37.136719 61.828125 36.902344 61.828125 36.691406 61.960938 36.503906 62.109375 36.277344L62.890625 35.097656 65.765625 35.097656 65.878906 36.101563C65.890625 36.234375 65.902344 36.390625 65.902344 36.570313 65.902344 37.128906 65.554688 37.207031 65.007813 37.207031L64.941406 37.539063zM65.722656 34.652344L63.15625 34.652344 65.320313 31.425781 65.355469 31.425781 65.722656 34.652344M77.425781 31.414063L76.679688 31.414063 76.679688 34.796875C76.679688 36.101563 75.652344 37.136719 74.4375 37.136719 73.199219 37.136719 72.195313 36.089844 72.195313 34.785156L72.195313 31.414063 71.445313 31.414063 71.445313 34.839844C71.445313 36.648438 72.742188 37.894531 74.4375 37.894531 76.132813 37.894531 77.425781 36.625 77.425781 34.796875L77.425781 31.414063M85.109375 33.644531C86.167969 33.402344 87.058594 32.855469 87.058594 31.648438 87.058594 30.847656 86.523438 30.210938 84.640625 30.210938L81.816406 30.210938 81.75 30.542969C82.574219 30.542969 82.789063 30.667969 82.597656 31.558594L81.648438 36.144531C81.460938 37.070313 81.269531 37.207031 80.421875 37.207031L80.355469 37.539063 83.570313 37.539063C85.320313 37.539063 86.703125 36.726563 86.703125 35.230469 86.703125 34.292969 85.976563 33.824219 85.109375 33.703125zM83.1875 33.5L83.769531 30.667969C84.003906 30.644531 84.101563 30.632813 84.328125 30.632813 85.578125 30.632813 85.953125 31.125 85.953125 31.726563 85.953125 32.832031 85.375 33.5 83.835938 33.5zM83.101563 33.949219L83.757813 33.949219C84.695313 33.949219 85.554688 34.238281 85.554688 35.261719 85.554688 36.914063 84.160156 37.136719 83.144531 37.136719 82.867188 37.136719 82.71875 37.128906 82.464844 37.105469L83.101563 33.949219M90.890625 34.582031C90.890625 32.152344 89.71875 30.410156 87.925781 29.496094L87.746094 29.785156C89.375 30.867188 89.976563 32.363281 89.976563 34.582031 89.976563 36.824219 89.375 38.332031 87.746094 39.402344L87.925781 39.714844C89.71875 38.789063 90.890625 37.035156 90.890625 34.582031" fill="#e14b3b" />
  <path d="M 135.539063 66.890625 L 135.539063 66.132813 L 128.890625 66.132813 L 128.890625 66.890625 Z M 135.539063 69.167969 L 135.539063 68.417969 L 128.890625 68.417969 L 128.890625 69.167969 L 135.539063 69.167969" />
  <path d="M 1392.460938 123.99375 L 2507.304688 123.99375 L 2507.304688 960.126563 L 1392.460938 960.126563 Z M 1392.460938 123.99375" transform="matrix(.1 0 0 -.1 0 122.54)" fill="none" stroke-width="7.97" stroke-linecap="round" stroke-linejoin="round" stroke="#000" stroke-miterlimit="10" />
  <path d="M 2367.96875 542.040625 C 2367.96875 695.985938 2243.164063 820.751563 2089.257813 820.751563 C 1935.3125 820.751563 1810.546875 695.985938 1810.546875 542.040625 C 1810.546875 388.134375 1935.3125 263.329688 2089.257813 263.329688 C 2243.164063 263.329688 2367.96875 388.134375 2367.96875 542.040625 Z M 2367.96875 542.040625" transform="matrix(.1 0 0 -.1 0 122.54)" fill="none" stroke-width="7.97" stroke-linecap="round" stroke-linejoin="round" stroke="#000" stroke-miterlimit="10" />
  <use xlink:href="#svg258159043062tikz_00015s" transform="translate(152 40)" />
  <path d="M145.3125 18.664063L145.691406 16.5 145.421875 16.5C145.3125 16.734375 145.179688 16.824219 144.988281 16.824219 144.742188 16.824219 144.484375 16.5 143.515625 16.5 142.265625 16.5 141.082031 17.199219 141.082031 18.496094 141.082031 19.523438 141.695313 19.925781 142.433594 20.390625 143.226563 20.894531 143.984375 21.351563 143.972656 22.335938 143.960938 23.191406 143.257813 23.605469 142.332031 23.605469 141.207031 23.617188 140.828125 23.238281 140.726563 21.699219L140.414063 21.699219 139.945313 24.105469 140.28125 24.105469C140.324219 23.882813 140.492188 23.738281 140.648438 23.738281 140.90625 23.738281 141.238281 24.074219 142.398438 24.074219 143.78125 24.074219 144.964844 23.226563 144.964844 21.808594 144.964844 20.738281 144.207031 20.292969 143.382813 19.769531 142.667969 19.308594 142.007813 18.851563 142.007813 18.171875 142.007813 17.371094 142.578125 16.902344 143.503906 16.902344 144.632813 16.902344 144.945313 17.433594 144.988281 18.664063L145.3125 18.664063M161.71875 44.839844L161.789063 44.503906C161.117188 44.503906 160.929688 44.261719 160.816406 43.511719L159.9375 37.464844 159.46875 37.464844 155.605469 43.054688C154.769531 44.328125 154.558594 44.503906 153.945313 44.503906L153.867188 44.839844 156.199219 44.839844 156.277344 44.503906C155.785156 44.503906 155.628906 44.4375 155.628906 44.203125 155.628906 43.992188 155.761719 43.800781 155.90625 43.578125L156.6875 42.394531 159.566406 42.394531 159.679688 43.402344C159.6875 43.535156 159.703125 43.691406 159.703125 43.871094 159.703125 44.425781 159.355469 44.503906 158.808594 44.503906L158.742188 44.839844zM159.523438 41.949219L156.957031 41.949219 159.121094 38.726563 159.15625 38.726563 159.523438 41.949219" />
  <path d="M166.617188 30.308594L166.550781 30.644531C167.296875 30.644531 167.53125 30.769531 167.40625 31.425781L166.414063 36.222656C166.238281 37.160156 166.070313 37.304688 165.222656 37.304688L165.15625 37.640625 168.257813 37.640625 168.324219 37.304688C167.421875 37.304688 167.21875 37.183594 167.40625 36.269531L167.796875 34.359375C167.945313 34.402344 168.246094 34.449219 168.46875 34.449219 169.941406 34.449219 171.738281 33.78125 171.738281 31.847656 171.738281 30.679688 170.699219 30.308594 169.328125 30.308594zM168.523438 30.789063C168.769531 30.769531 168.890625 30.746094 169.128906 30.746094 170.253906 30.746094 170.65625 31.246094 170.65625 31.984375 170.65625 33.410156 169.707031 33.992188 168.421875 33.992188 168.167969 33.992188 168.011719 33.96875 167.886719 33.949219L168.523438 30.789063M174.179688 34.785156C174.179688 37.238281 175.351563 38.988281 177.148438 39.914063L177.328125 39.601563C175.695313 38.53125 175.09375 37.027344 175.09375 34.785156 175.09375 32.5625 175.695313 31.066406 177.328125 29.984375L177.148438 29.695313C175.351563 30.609375 174.179688 32.351563 174.179688 34.785156M185.421875 37.640625L185.488281 37.304688C184.816406 37.304688 184.628906 37.058594 184.515625 36.3125L183.636719 30.265625 183.167969 30.265625 179.304688 35.855469C178.46875 37.128906 178.257813 37.304688 177.644531 37.304688L177.566406 37.640625 179.898438 37.640625 179.976563 37.304688C179.484375 37.304688 179.328125 37.238281 179.328125 37.003906 179.328125 36.792969 179.464844 36.601563 179.609375 36.378906L180.390625 35.195313 183.265625 35.195313 183.378906 36.199219C183.390625 36.335938 183.402344 36.492188 183.402344 36.667969 183.402344 37.226563 183.054688 37.304688 182.507813 37.304688L182.441406 37.640625zM183.222656 34.75L180.65625 34.75 182.820313 31.527344 182.855469 31.527344 183.222656 34.75M189.390625 34.785156C189.390625 32.351563 188.21875 30.609375 186.425781 29.695313L186.246094 29.984375C187.875 31.066406 188.476563 32.5625 188.476563 34.785156 188.476563 37.027344 187.875 38.53125 186.246094 39.601563L186.425781 39.914063C188.21875 38.988281 189.390625 37.238281 189.390625 34.785156" fill="#f3a203" />
  <path d="M233.109375 40.945313C234.167969 40.699219 235.058594 40.152344 235.058594 38.949219 235.058594 38.144531 234.523438 37.511719 232.640625 37.511719L229.816406 37.511719 229.75 37.84375C230.574219 37.84375 230.789063 37.96875 230.597656 38.859375L229.648438 43.445313C229.460938 44.371094 229.269531 44.503906 228.421875 44.503906L228.355469 44.839844 231.570313 44.839844C233.320313 44.839844 234.703125 44.027344 234.703125 42.53125 234.703125 41.59375 233.976563 41.125 233.109375 41.003906zM231.1875 40.800781L231.769531 37.96875C232.003906 37.945313 232.101563 37.933594 232.328125 37.933594 233.578125 37.933594 233.953125 38.425781 233.953125 39.027344 233.953125 40.132813 233.375 40.800781 231.835938 40.800781zM231.101563 41.246094L231.757813 41.246094C232.695313 41.246094 233.554688 41.539063 233.554688 42.5625 233.554688 44.214844 232.160156 44.4375 231.144531 44.4375 230.867188 44.4375 230.71875 44.425781 230.464844 44.40625L231.101563 41.246094M261.441406 68.730469L261.441406 67.972656 258.515625 67.972656 258.515625 65.015625 257.714844 65.015625 257.714844 67.972656 254.792969 67.972656 254.792969 68.730469 257.714844 68.730469 257.714844 71.6875 258.515625 71.6875 258.515625 68.730469 261.441406 68.730469" />
  <path d="M 2646.679688 123.99375 L 3761.523438 123.99375 L 3761.523438 960.126563 L 2646.679688 960.126563 Z M 2646.679688 123.99375" transform="matrix(.1 0 0 -.1 0 122.54)" fill="none" stroke-width="7.97" stroke-linecap="round" stroke-linejoin="round" stroke="#000" stroke-miterlimit="10" />
  <path d="M 3343.4375 542.040625 C 3343.4375 695.985938 3218.671875 820.751563 3064.726563 820.751563 C 2910.78125 820.751563 2786.015625 695.985938 2786.015625 542.040625 C 2786.015625 388.134375 2910.78125 263.329688 3064.726563 263.329688 C 3218.671875 263.329688 3343.4375 388.134375 3343.4375 542.040625 Z M 3343.4375 542.040625" transform="matrix(.1 0 0 -.1 0 122.54)" fill="none" stroke-width="7.97" stroke-linecap="round" stroke-linejoin="round" stroke="#000" stroke-miterlimit="10" />
  <use xlink:href="#svg258159043062tikz_00015t" transform="translate(306 40)" />
  <path d="M270.710938 18.664063L271.089844 16.5 270.824219 16.5C270.710938 16.734375 270.578125 16.824219 270.386719 16.824219 270.140625 16.824219 269.886719 16.5 268.914063 16.5 267.664063 16.5 266.484375 17.199219 266.484375 18.496094 266.484375 19.523438 267.097656 19.925781 267.832031 20.390625 268.625 20.894531 269.382813 21.351563 269.371094 22.335938 269.359375 23.191406 268.65625 23.605469 267.734375 23.605469 266.605469 23.617188 266.226563 23.238281 266.128906 21.699219L265.8125 21.699219 265.34375 24.105469 265.679688 24.105469C265.726563 23.882813 265.890625 23.738281 266.046875 23.738281 266.304688 23.738281 266.640625 24.074219 267.800781 24.074219 269.183594 24.074219 270.367188 23.226563 270.367188 21.808594 270.367188 20.738281 269.605469 20.292969 268.78125 19.769531 268.066406 19.308594 267.410156 18.851563 267.410156 18.171875 267.410156 17.371094 267.976563 16.902344 268.902344 16.902344 270.03125 16.902344 270.34375 17.433594 270.386719 18.664063L270.710938 18.664063M287.121094 44.839844L287.1875 44.503906C286.515625 44.503906 286.328125 44.261719 286.21875 43.511719L285.335938 37.464844 284.867188 37.464844 281.007813 43.054688C280.171875 44.328125 279.957031 44.503906 279.34375 44.503906L279.265625 44.839844 281.597656 44.839844 281.675781 44.503906C281.183594 44.503906 281.027344 44.4375 281.027344 44.203125 281.027344 43.992188 281.164063 43.800781 281.308594 43.578125L282.089844 42.394531 284.96875 42.394531 285.078125 43.402344C285.089844 43.535156 285.101563 43.691406 285.101563 43.871094 285.101563 44.425781 284.753906 44.503906 284.207031 44.503906L284.140625 44.839844zM284.921875 41.949219L282.355469 41.949219 284.519531 38.726563 284.554688 38.726563 284.921875 41.949219" />
  <path d="M324.015625 30.308594L323.949219 30.644531C324.695313 30.644531 324.929688 30.769531 324.808594 31.425781L323.816406 36.222656C323.636719 37.160156 323.46875 37.304688 322.621094 37.304688L322.554688 37.640625 325.65625 37.640625 325.722656 37.304688C324.820313 37.304688 324.617188 37.183594 324.808594 36.269531L325.199219 34.359375C325.34375 34.402344 325.644531 34.449219 325.867188 34.449219 327.339844 34.449219 329.136719 33.78125 329.136719 31.847656 329.136719 30.679688 328.101563 30.308594 326.726563 30.308594zM325.921875 30.789063C326.171875 30.769531 326.292969 30.746094 326.527344 30.746094 327.652344 30.746094 328.054688 31.246094 328.054688 31.984375 328.054688 33.410156 327.105469 33.992188 325.824219 33.992188 325.566406 33.992188 325.410156 33.96875 325.289063 33.949219L325.921875 30.789063M331.578125 34.785156C331.578125 37.238281 332.753906 38.988281 334.546875 39.914063L334.726563 39.601563C333.097656 38.53125 332.496094 37.027344 332.496094 34.785156 332.496094 32.5625 333.097656 31.066406 334.726563 29.984375L334.546875 29.695313C332.753906 30.609375 331.578125 32.351563 331.578125 34.785156M339.707031 33.746094C340.765625 33.5 341.660156 32.953125 341.660156 31.75 341.660156 30.945313 341.125 30.308594 339.238281 30.308594L336.417969 30.308594 336.351563 30.644531C337.175781 30.644531 337.386719 30.769531 337.195313 31.660156L336.246094 36.246094C336.058594 37.171875 335.871094 37.304688 335.023438 37.304688L334.953125 37.640625 338.167969 37.640625C339.917969 37.640625 341.304688 36.824219 341.304688 35.332031 341.304688 34.394531 340.578125 33.925781 339.707031 33.800781zM337.789063 33.601563L338.367188 30.769531C338.601563 30.746094 338.703125 30.734375 338.925781 30.734375 340.175781 30.734375 340.554688 31.222656 340.554688 31.828125 340.554688 32.933594 339.976563 33.601563 338.4375 33.601563zM337.699219 34.046875L338.359375 34.046875C339.296875 34.046875 340.152344 34.339844 340.152344 35.363281 340.152344 37.015625 338.757813 37.238281 337.742188 37.238281 337.464844 37.238281 337.320313 37.226563 337.0625 37.207031L337.699219 34.046875M345.492188 34.785156C345.492188 32.351563 344.320313 30.609375 342.523438 29.695313L342.34375 29.984375C343.976563 31.066406 344.578125 32.5625 344.578125 34.785156 344.578125 37.027344 343.976563 38.53125 342.34375 39.601563L342.523438 39.914063C344.320313 38.988281 345.492188 37.238281 345.492188 34.785156" fill="#109e24" />
  <path d="M358.507813 40.945313C359.566406 40.699219 360.460938 40.152344 360.460938 38.949219 360.460938 38.144531 359.925781 37.511719 358.039063 37.511719L355.21875 37.511719 355.148438 37.84375C355.976563 37.84375 356.1875 37.96875 355.996094 38.859375L355.046875 43.445313C354.859375 44.371094 354.671875 44.503906 353.820313 44.503906L353.753906 44.839844 356.96875 44.839844C358.71875 44.839844 360.101563 44.027344 360.101563 42.53125 360.101563 41.59375 359.378906 41.125 358.507813 41.003906zM356.589844 40.800781L357.167969 37.96875C357.402344 37.945313 357.503906 37.933594 357.726563 37.933594 358.976563 37.933594 359.355469 38.425781 359.355469 39.027344 359.355469 40.132813 358.773438 40.800781 357.234375 40.800781zM356.5 41.246094L357.15625 41.246094C358.09375 41.246094 358.953125 41.539063 358.953125 42.5625 358.953125 44.214844 357.558594 44.4375 356.542969 44.4375 356.265625 44.4375 356.121094 44.425781 355.863281 44.40625L356.5 41.246094M380.191406 67.429688L386.839844 67.429688 386.839844 66.671875 380.191406 66.671875zM380.191406 67.429688" />
  <path d="M 3900.859375 123.99375 L 5015.703125 123.99375 L 5015.703125 960.126563 L 3900.859375 960.126563 Z M 3900.859375 123.99375" transform="matrix(.1 0 0 -.1 0 122.54)" fill="none" stroke-width="7.97" stroke-linecap="round" stroke-linejoin="round" stroke="#000" stroke-miterlimit="10" />
  <path d="M 4597.65625 542.040625 C 4597.65625 695.985938 4472.851563 820.751563 4318.945313 820.751563 C 4165 820.751563 4040.234375 695.985938 4040.234375 542.040625 C 4040.234375 388.134375 4165 263.329688 4318.945313 263.329688 C 4472.851563 263.329688 4597.65625 388.134375 4597.65625 542.040625 Z M 4597.65625 542.040625" transform="matrix(.1 0 0 -.1 0 122.54)" fill="none" stroke-width="7.97" stroke-linecap="round" stroke-linejoin="round" stroke="#000" stroke-miterlimit="10" />
  <path d="M 4876.367188 542.040625 C 4876.367188 695.985938 4751.5625 820.751563 4597.65625 820.751563 C 4443.710938 820.751563 4318.945313 695.985938 4318.945313 542.040625 C 4318.945313 388.134375 4443.710938 263.329688 4597.65625 263.329688 C 4751.5625 263.329688 4876.367188 388.134375 4876.367188 542.040625 Z M 4876.367188 542.040625" transform="matrix(.1 0 0 -.1 0 122.54)" fill="none" stroke-width="7.97" stroke-linecap="round" stroke-linejoin="round" stroke="#000" stroke-miterlimit="10" />
  <use xlink:href="#svg258159043062tikz_00015u" transform="translate(431 44)" />
  <use xlink:href="#svg258159043062tikz_00015v" transform="translate(445 44)" />
  <path d="M398.210938 18.664063L398.589844 16.5 398.324219 16.5C398.210938 16.734375 398.078125 16.824219 397.886719 16.824219 397.640625 16.824219 397.386719 16.5 396.414063 16.5 395.164063 16.5 393.984375 17.199219 393.984375 18.496094 393.984375 19.523438 394.597656 19.925781 395.332031 20.390625 396.125 20.894531 396.882813 21.351563 396.871094 22.335938 396.859375 23.191406 396.15625 23.605469 395.234375 23.605469 394.105469 23.617188 393.726563 23.238281 393.628906 21.699219L393.3125 21.699219 392.84375 24.105469 393.179688 24.105469C393.226563 23.882813 393.390625 23.738281 393.546875 23.738281 393.804688 23.738281 394.140625 24.074219 395.300781 24.074219 396.683594 24.074219 397.867188 23.226563 397.867188 21.808594 397.867188 20.738281 397.105469 20.292969 396.28125 19.769531 395.566406 19.308594 394.910156 18.851563 394.910156 18.171875 394.910156 17.371094 395.476563 16.902344 396.402344 16.902344 397.53125 16.902344 397.84375 17.433594 397.886719 18.664063L398.210938 18.664063M413.21875 45.539063L413.289063 45.207031C412.617188 45.207031 412.429688 44.960938 412.316406 44.210938L411.4375 38.164063 410.96875 38.164063 407.105469 43.753906C406.269531 45.027344 406.058594 45.207031 405.445313 45.207031L405.367188 45.539063 407.699219 45.539063 407.777344 45.207031C407.285156 45.207031 407.128906 45.136719 407.128906 44.902344 407.128906 44.691406 407.261719 44.503906 407.40625 44.277344L408.1875 43.097656 411.066406 43.097656 411.179688 44.101563C411.1875 44.234375 411.203125 44.390625 411.203125 44.570313 411.203125 45.128906 410.855469 45.207031 410.308594 45.207031L410.242188 45.539063zM411.023438 42.652344L408.457031 42.652344 410.621094 39.425781 410.65625 39.425781 411.023438 42.652344M484.609375 41.644531C485.667969 41.402344 486.558594 40.855469 486.558594 39.648438 486.558594 38.847656 486.023438 38.210938 484.140625 38.210938L481.316406 38.210938 481.25 38.542969C482.074219 38.542969 482.289063 38.667969 482.097656 39.558594L481.148438 44.144531C480.960938 45.070313 480.769531 45.207031 479.921875 45.207031L479.855469 45.539063 483.070313 45.539063C484.820313 45.539063 486.203125 44.726563 486.203125 43.230469 486.203125 42.292969 485.476563 41.824219 484.609375 41.703125zM482.6875 41.5L483.269531 38.667969C483.503906 38.644531 483.601563 38.632813 483.828125 38.632813 485.078125 38.632813 485.453125 39.125 485.453125 39.726563 485.453125 40.832031 484.875 41.5 483.335938 41.5zM482.601563 41.949219L483.257813 41.949219C484.195313 41.949219 485.054688 42.238281 485.054688 43.261719 485.054688 44.914063 483.660156 45.136719 482.644531 45.136719 482.367188 45.136719 482.21875 45.128906 481.964844 45.105469L482.601563 41.949219" />
  <path d="M426.015625 29.511719L425.949219 29.84375C426.695313 29.84375 426.929688 29.96875 426.808594 30.625L425.816406 35.421875C425.636719 36.359375 425.46875 36.503906 424.621094 36.503906L424.554688 36.839844 427.65625 36.839844 427.722656 36.503906C426.820313 36.503906 426.617188 36.382813 426.808594 35.46875L427.199219 33.558594C427.34375 33.605469 427.644531 33.648438 427.867188 33.648438 429.339844 33.648438 431.136719 32.980469 431.136719 31.050781 431.136719 29.878906 430.101563 29.511719 428.726563 29.511719zM427.921875 29.988281C428.171875 29.96875 428.292969 29.945313 428.527344 29.945313 429.652344 29.945313 430.054688 30.449219 430.054688 31.183594 430.054688 32.613281 429.105469 33.191406 427.824219 33.191406 427.566406 33.191406 427.410156 33.167969 427.289063 33.148438L427.921875 29.988281M433.578125 33.882813C433.578125 36.335938 434.753906 38.089844 436.546875 39.015625L436.726563 38.703125C435.097656 37.632813 434.496094 36.125 434.496094 33.882813 434.496094 31.664063 435.097656 30.167969 436.726563 29.085938L436.546875 28.796875C434.753906 29.710938 433.578125 31.449219 433.578125 33.882813M444.820313 36.839844L444.886719 36.503906C444.21875 36.503906 444.027344 36.261719 443.917969 35.511719L443.035156 29.464844 442.566406 29.464844 438.707031 35.054688C437.871094 36.328125 437.65625 36.503906 437.042969 36.503906L436.964844 36.839844 439.296875 36.839844 439.378906 36.503906C438.882813 36.503906 438.726563 36.4375 438.726563 36.203125 438.726563 35.992188 438.863281 35.800781 439.007813 35.578125L439.789063 34.394531 442.667969 34.394531 442.777344 35.402344C442.789063 35.535156 442.800781 35.691406 442.800781 35.871094 442.800781 36.425781 442.453125 36.503906 441.90625 36.503906L441.84375 36.839844zM442.621094 33.949219L440.054688 33.949219 442.21875 30.726563 442.253906 30.726563 442.621094 33.949219M454.328125 37.195313L454.328125 33.816406C454.328125 31.988281 453.03125 30.714844 451.335938 30.714844 449.640625 30.714844 448.347656 31.964844 448.347656 33.785156L448.347656 37.195313 449.09375 37.195313 449.09375 33.828125C449.09375 32.523438 450.097656 31.472656 451.335938 31.472656 452.554688 31.472656 453.578125 32.511719 453.578125 33.816406L453.578125 37.195313 454.328125 37.195313M462.109375 32.945313C463.167969 32.699219 464.058594 32.152344 464.058594 30.949219 464.058594 30.144531 463.523438 29.511719 461.640625 29.511719L458.816406 29.511719 458.75 29.84375C459.574219 29.84375 459.789063 29.96875 459.597656 30.859375L458.648438 35.445313C458.460938 36.371094 458.269531 36.503906 457.421875 36.503906L457.355469 36.839844 460.570313 36.839844C462.320313 36.839844 463.703125 36.027344 463.703125 34.53125 463.703125 33.59375 462.976563 33.125 462.109375 33.003906zM460.1875 32.800781L460.769531 29.96875C461.003906 29.945313 461.101563 29.933594 461.328125 29.933594 462.578125 29.933594 462.953125 30.425781 462.953125 31.027344 462.953125 32.132813 462.375 32.800781 460.835938 32.800781zM460.101563 33.246094L460.757813 33.246094C461.695313 33.246094 462.554688 33.539063 462.554688 34.5625 462.554688 36.214844 461.160156 36.4375 460.144531 36.4375 459.867188 36.4375 459.71875 36.425781 459.464844 36.40625L460.101563 33.246094M467.890625 33.882813C467.890625 31.449219 466.71875 29.710938 464.925781 28.796875L464.746094 29.085938C466.375 30.167969 466.976563 31.664063 466.976563 33.882813 466.976563 36.125 466.375 37.632813 464.746094 38.703125L464.925781 39.015625C466.71875 38.089844 467.890625 36.335938 467.890625 33.882813" fill="#55a4e0" />
</svg>